<?xml version="1.0" encoding="UTF-8"?>

<svg version="1.1" baseProfile="tiny" width="127.72mm" height="95.97mm" viewBox="0 0 12772 9597" preserveAspectRatio="xMidYMid" fill-rule="evenodd" clip-path="url(#presentation_clip_path)" stroke-width="28.222" stroke-linejoin="round" xmlns="http://www.w3.org/2000/svg" xmlns:ooo="http://xml.openoffice.org/svg/export" xmlns:xlink="http://www.w3.org/1999/xlink" xml:space="preserve">
 <defs class="ClipPathGroup">
  <clipPath id="presentation_clip_path" clipPathUnits="userSpaceOnUse">
   <rect x="0" y="0" width="12772" height="9597"/>
  </clipPath>
 </defs>
 <defs class="TextShapeIndex">
  
 </defs>
 <defs class="TextEmbeddedBitmaps"/>
 <g>
  <g id="id2" class="Master_Slide">
   <g id="bg-id2" class="Background"/>
   <g id="bo-id2" class="BackgroundObjects"/>
  </g>
 </g>
 <g class="SlideGroup">
  <g>
   <g id="id1" class="Slide" clip-path="url(#presentation_clip_path)">
    <g class="Page">
     <g class="Group">
      <g class="com.sun.star.drawing.RectangleShape">
       <g id="id3">
        <path fill="rgb(0,0,0)" stroke="none" d="M 566,6386 L 1007,6386 C 1056,6386 1095,6347 1095,6298 L 1095,5415 C 1095,5366 1056,5327 1007,5327 L 124,5327 C 75,5327 36,5366 36,5415 L 36,6298 C 36,6347 75,6386 124,6386 L 566,6386 Z"/>
        <path fill="none" stroke="rgb(0,0,0)" stroke-width="71" stroke-linejoin="round" d="M 566,6386 L 1007,6386 C 1056,6386 1095,6347 1095,6298 L 1095,5415 C 1095,5366 1056,5327 1007,5327 L 124,5327 C 75,5327 36,5366 36,5415 L 36,6298 C 36,6347 75,6386 124,6386 L 566,6386 Z"/>
       </g>
      </g>
      <g class="com.sun.star.drawing.RectangleShape">
       <g id="id4">
        <path fill="rgb(0,155,72)" stroke="none" d="M 566,6351 L 954,6351 C 1013,6351 1060,6304 1060,6245 L 1060,5468 C 1060,5409 1013,5362 954,5362 L 177,5362 C 118,5362 71,5409 71,5468 L 71,6245 C 71,6304 118,6351 177,6351 L 566,6351 Z"/>
        <path fill="none" stroke="rgb(0,0,0)" stroke-width="71" stroke-linejoin="round" d="M 566,6351 L 954,6351 C 1013,6351 1060,6304 1060,6245 L 1060,5468 C 1060,5409 1013,5362 954,5362 L 177,5362 C 118,5362 71,5409 71,5468 L 71,6245 C 71,6304 118,6351 177,6351 L 566,6351 Z"/>
       </g>
      </g>
      <g class="com.sun.star.drawing.RectangleShape">
       <g id="id5">
        <path fill="rgb(0,0,0)" stroke="none" d="M 566,5328 L 1007,5328 C 1056,5328 1095,5289 1095,5240 L 1095,4357 C 1095,4308 1056,4269 1007,4269 L 124,4269 C 75,4269 36,4308 36,4357 L 36,5240 C 36,5289 75,5328 124,5328 L 566,5328 Z"/>
        <path fill="none" stroke="rgb(0,0,0)" stroke-width="71" stroke-linejoin="round" d="M 566,5328 L 1007,5328 C 1056,5328 1095,5289 1095,5240 L 1095,4357 C 1095,4308 1056,4269 1007,4269 L 124,4269 C 75,4269 36,4308 36,4357 L 36,5240 C 36,5289 75,5328 124,5328 L 566,5328 Z"/>
       </g>
      </g>
      <g class="com.sun.star.drawing.RectangleShape">
       <g id="id6">
        <path fill="rgb(0,155,72)" stroke="none" d="M 566,5291 L 954,5291 C 1013,5291 1060,5244 1060,5185 L 1060,4408 C 1060,4349 1013,4302 954,4302 L 177,4302 C 118,4302 71,4349 71,4408 L 71,5185 C 71,5244 118,5291 177,5291 L 566,5291 Z"/>
        <path fill="none" stroke="rgb(0,0,0)" stroke-width="71" stroke-linejoin="round" d="M 566,5291 L 954,5291 C 1013,5291 1060,5244 1060,5185 L 1060,4408 C 1060,4349 1013,4302 954,4302 L 177,4302 C 118,4302 71,4349 71,4408 L 71,5185 C 71,5244 118,5291 177,5291 L 566,5291 Z"/>
       </g>
      </g>
      <g class="com.sun.star.drawing.RectangleShape">
       <g id="id7">
        <path fill="rgb(0,0,0)" stroke="none" d="M 566,4270 L 1007,4270 C 1056,4270 1095,4231 1095,4182 L 1095,3299 C 1095,3250 1056,3211 1007,3211 L 124,3211 C 75,3211 36,3250 36,3299 L 36,4182 C 36,4231 75,4270 124,4270 L 566,4270 Z"/>
        <path fill="none" stroke="rgb(0,0,0)" stroke-width="71" stroke-linejoin="round" d="M 566,4270 L 1007,4270 C 1056,4270 1095,4231 1095,4182 L 1095,3299 C 1095,3250 1056,3211 1007,3211 L 124,3211 C 75,3211 36,3250 36,3299 L 36,4182 C 36,4231 75,4270 124,4270 L 566,4270 Z"/>
       </g>
      </g>
      <g class="com.sun.star.drawing.RectangleShape">
       <g id="id8">
        <path fill="rgb(0,155,72)" stroke="none" d="M 566,4235 L 954,4235 C 1013,4235 1060,4188 1060,4129 L 1060,3352 C 1060,3293 1013,3246 954,3246 L 177,3246 C 118,3246 71,3293 71,3352 L 71,4129 C 71,4188 118,4235 177,4235 L 566,4235 Z"/>
        <path fill="none" stroke="rgb(0,0,0)" stroke-width="71" stroke-linejoin="round" d="M 566,4235 L 954,4235 C 1013,4235 1060,4188 1060,4129 L 1060,3352 C 1060,3293 1013,3246 954,3246 L 177,3246 C 118,3246 71,3293 71,3352 L 71,4129 C 71,4188 118,4235 177,4235 L 566,4235 Z"/>
       </g>
      </g>
      <g class="com.sun.star.drawing.RectangleShape">
       <g id="id9">
        <path fill="rgb(0,0,0)" stroke="none" d="M 1625,6386 L 2066,6386 C 2115,6386 2154,6347 2154,6298 L 2154,5415 C 2154,5366 2115,5327 2066,5327 L 1183,5327 C 1134,5327 1095,5366 1095,5415 L 1095,6298 C 1095,6347 1134,6386 1183,6386 L 1625,6386 Z"/>
        <path fill="none" stroke="rgb(0,0,0)" stroke-width="71" stroke-linejoin="round" d="M 1625,6386 L 2066,6386 C 2115,6386 2154,6347 2154,6298 L 2154,5415 C 2154,5366 2115,5327 2066,5327 L 1183,5327 C 1134,5327 1095,5366 1095,5415 L 1095,6298 C 1095,6347 1134,6386 1183,6386 L 1625,6386 Z"/>
       </g>
      </g>
      <g class="com.sun.star.drawing.RectangleShape">
       <g id="id10">
        <path fill="rgb(0,155,72)" stroke="none" d="M 1625,6351 L 2013,6351 C 2072,6351 2119,6304 2119,6245 L 2119,5468 C 2119,5409 2072,5362 2013,5362 L 1236,5362 C 1177,5362 1130,5409 1130,5468 L 1130,6245 C 1130,6304 1177,6351 1236,6351 L 1625,6351 Z"/>
        <path fill="none" stroke="rgb(0,0,0)" stroke-width="71" stroke-linejoin="round" d="M 1625,6351 L 2013,6351 C 2072,6351 2119,6304 2119,6245 L 2119,5468 C 2119,5409 2072,5362 2013,5362 L 1236,5362 C 1177,5362 1130,5409 1130,5468 L 1130,6245 C 1130,6304 1177,6351 1236,6351 L 1625,6351 Z"/>
       </g>
      </g>
      <g class="com.sun.star.drawing.RectangleShape">
       <g id="id11">
        <path fill="rgb(0,0,0)" stroke="none" d="M 1625,5328 L 2066,5328 C 2115,5328 2154,5289 2154,5240 L 2154,4357 C 2154,4308 2115,4269 2066,4269 L 1183,4269 C 1134,4269 1095,4308 1095,4357 L 1095,5240 C 1095,5289 1134,5328 1183,5328 L 1625,5328 Z"/>
        <path fill="none" stroke="rgb(0,0,0)" stroke-width="71" stroke-linejoin="round" d="M 1625,5328 L 2066,5328 C 2115,5328 2154,5289 2154,5240 L 2154,4357 C 2154,4308 2115,4269 2066,4269 L 1183,4269 C 1134,4269 1095,4308 1095,4357 L 1095,5240 C 1095,5289 1134,5328 1183,5328 L 1625,5328 Z"/>
       </g>
      </g>
      <g class="com.sun.star.drawing.RectangleShape">
       <g id="id12">
        <path fill="rgb(0,155,72)" stroke="none" d="M 1625,5291 L 2013,5291 C 2072,5291 2119,5244 2119,5185 L 2119,4408 C 2119,4349 2072,4302 2013,4302 L 1236,4302 C 1177,4302 1130,4349 1130,4408 L 1130,5185 C 1130,5244 1177,5291 1236,5291 L 1625,5291 Z"/>
        <path fill="none" stroke="rgb(0,0,0)" stroke-width="71" stroke-linejoin="round" d="M 1625,5291 L 2013,5291 C 2072,5291 2119,5244 2119,5185 L 2119,4408 C 2119,4349 2072,4302 2013,4302 L 1236,4302 C 1177,4302 1130,4349 1130,4408 L 1130,5185 C 1130,5244 1177,5291 1236,5291 L 1625,5291 Z"/>
       </g>
      </g>
      <g class="com.sun.star.drawing.RectangleShape">
       <g id="id13">
        <path fill="rgb(0,0,0)" stroke="none" d="M 1625,4270 L 2066,4270 C 2115,4270 2154,4231 2154,4182 L 2154,3299 C 2154,3250 2115,3211 2066,3211 L 1183,3211 C 1134,3211 1095,3250 1095,3299 L 1095,4182 C 1095,4231 1134,4270 1183,4270 L 1625,4270 Z"/>
        <path fill="none" stroke="rgb(0,0,0)" stroke-width="71" stroke-linejoin="round" d="M 1625,4270 L 2066,4270 C 2115,4270 2154,4231 2154,4182 L 2154,3299 C 2154,3250 2115,3211 2066,3211 L 1183,3211 C 1134,3211 1095,3250 1095,3299 L 1095,4182 C 1095,4231 1134,4270 1183,4270 L 1625,4270 Z"/>
       </g>
      </g>
      <g class="com.sun.star.drawing.RectangleShape">
       <g id="id14">
        <path fill="rgb(0,155,72)" stroke="none" d="M 1625,4235 L 2013,4235 C 2072,4235 2119,4188 2119,4129 L 2119,3352 C 2119,3293 2072,3246 2013,3246 L 1236,3246 C 1177,3246 1130,3293 1130,3352 L 1130,4129 C 1130,4188 1177,4235 1236,4235 L 1625,4235 Z"/>
        <path fill="none" stroke="rgb(0,0,0)" stroke-width="71" stroke-linejoin="round" d="M 1625,4235 L 2013,4235 C 2072,4235 2119,4188 2119,4129 L 2119,3352 C 2119,3293 2072,3246 2013,3246 L 1236,3246 C 1177,3246 1130,3293 1130,3352 L 1130,4129 C 1130,4188 1177,4235 1236,4235 L 1625,4235 Z"/>
       </g>
      </g>
      <g class="com.sun.star.drawing.RectangleShape">
       <g id="id15">
        <path fill="rgb(0,0,0)" stroke="none" d="M 2683,6386 L 3124,6386 C 3173,6386 3212,6347 3212,6298 L 3212,5415 C 3212,5366 3173,5327 3124,5327 L 2241,5327 C 2192,5327 2153,5366 2153,5415 L 2153,6298 C 2153,6347 2192,6386 2241,6386 L 2683,6386 Z"/>
        <path fill="none" stroke="rgb(0,0,0)" stroke-width="71" stroke-linejoin="round" d="M 2683,6386 L 3124,6386 C 3173,6386 3212,6347 3212,6298 L 3212,5415 C 3212,5366 3173,5327 3124,5327 L 2241,5327 C 2192,5327 2153,5366 2153,5415 L 2153,6298 C 2153,6347 2192,6386 2241,6386 L 2683,6386 Z"/>
       </g>
      </g>
      <g class="com.sun.star.drawing.RectangleShape">
       <g id="id16">
        <path fill="rgb(0,155,72)" stroke="none" d="M 2681,6351 L 3069,6351 C 3128,6351 3175,6304 3175,6245 L 3175,5468 C 3175,5409 3128,5362 3069,5362 L 2292,5362 C 2233,5362 2186,5409 2186,5468 L 2186,6245 C 2186,6304 2233,6351 2292,6351 L 2681,6351 Z"/>
        <path fill="none" stroke="rgb(0,0,0)" stroke-width="71" stroke-linejoin="round" d="M 2681,6351 L 3069,6351 C 3128,6351 3175,6304 3175,6245 L 3175,5468 C 3175,5409 3128,5362 3069,5362 L 2292,5362 C 2233,5362 2186,5409 2186,5468 L 2186,6245 C 2186,6304 2233,6351 2292,6351 L 2681,6351 Z"/>
       </g>
      </g>
      <g class="com.sun.star.drawing.RectangleShape">
       <g id="id17">
        <path fill="rgb(0,0,0)" stroke="none" d="M 2683,5328 L 3124,5328 C 3173,5328 3212,5289 3212,5240 L 3212,4357 C 3212,4308 3173,4269 3124,4269 L 2241,4269 C 2192,4269 2153,4308 2153,4357 L 2153,5240 C 2153,5289 2192,5328 2241,5328 L 2683,5328 Z"/>
        <path fill="none" stroke="rgb(0,0,0)" stroke-width="71" stroke-linejoin="round" d="M 2683,5328 L 3124,5328 C 3173,5328 3212,5289 3212,5240 L 3212,4357 C 3212,4308 3173,4269 3124,4269 L 2241,4269 C 2192,4269 2153,4308 2153,4357 L 2153,5240 C 2153,5289 2192,5328 2241,5328 L 2683,5328 Z"/>
       </g>
      </g>
      <g class="com.sun.star.drawing.RectangleShape">
       <g id="id18">
        <path fill="rgb(0,155,72)" stroke="none" d="M 2681,5291 L 3069,5291 C 3128,5291 3175,5244 3175,5185 L 3175,4408 C 3175,4349 3128,4302 3069,4302 L 2292,4302 C 2233,4302 2186,4349 2186,4408 L 2186,5185 C 2186,5244 2233,5291 2292,5291 L 2681,5291 Z"/>
        <path fill="none" stroke="rgb(0,0,0)" stroke-width="71" stroke-linejoin="round" d="M 2681,5291 L 3069,5291 C 3128,5291 3175,5244 3175,5185 L 3175,4408 C 3175,4349 3128,4302 3069,4302 L 2292,4302 C 2233,4302 2186,4349 2186,4408 L 2186,5185 C 2186,5244 2233,5291 2292,5291 L 2681,5291 Z"/>
       </g>
      </g>
      <g class="com.sun.star.drawing.RectangleShape">
       <g id="id19">
        <path fill="rgb(0,0,0)" stroke="none" d="M 2683,4270 L 3124,4270 C 3173,4270 3212,4231 3212,4182 L 3212,3299 C 3212,3250 3173,3211 3124,3211 L 2241,3211 C 2192,3211 2153,3250 2153,3299 L 2153,4182 C 2153,4231 2192,4270 2241,4270 L 2683,4270 Z"/>
        <path fill="none" stroke="rgb(0,0,0)" stroke-width="71" stroke-linejoin="round" d="M 2683,4270 L 3124,4270 C 3173,4270 3212,4231 3212,4182 L 3212,3299 C 3212,3250 3173,3211 3124,3211 L 2241,3211 C 2192,3211 2153,3250 2153,3299 L 2153,4182 C 2153,4231 2192,4270 2241,4270 L 2683,4270 Z"/>
       </g>
      </g>
      <g class="com.sun.star.drawing.RectangleShape">
       <g id="id20">
        <path fill="rgb(0,155,72)" stroke="none" d="M 2681,4235 L 3069,4235 C 3128,4235 3175,4188 3175,4129 L 3175,3352 C 3175,3293 3128,3246 3069,3246 L 2292,3246 C 2233,3246 2186,3293 2186,3352 L 2186,4129 C 2186,4188 2233,4235 2292,4235 L 2681,4235 Z"/>
        <path fill="none" stroke="rgb(0,0,0)" stroke-width="71" stroke-linejoin="round" d="M 2681,4235 L 3069,4235 C 3128,4235 3175,4188 3175,4129 L 3175,3352 C 3175,3293 3128,3246 3069,3246 L 2292,3246 C 2233,3246 2186,3293 2186,3352 L 2186,4129 C 2186,4188 2233,4235 2292,4235 L 2681,4235 Z"/>
       </g>
      </g>
      <g class="com.sun.star.drawing.RectangleShape">
       <g id="id21">
        <path fill="rgb(0,0,0)" stroke="none" d="M 3741,6386 L 4182,6386 C 4231,6386 4270,6347 4270,6298 L 4270,5415 C 4270,5366 4231,5327 4182,5327 L 3299,5327 C 3250,5327 3211,5366 3211,5415 L 3211,6298 C 3211,6347 3250,6386 3299,6386 L 3741,6386 Z"/>
        <path fill="none" stroke="rgb(0,0,0)" stroke-width="71" stroke-linejoin="round" d="M 3741,6386 L 4182,6386 C 4231,6386 4270,6347 4270,6298 L 4270,5415 C 4270,5366 4231,5327 4182,5327 L 3299,5327 C 3250,5327 3211,5366 3211,5415 L 3211,6298 C 3211,6347 3250,6386 3299,6386 L 3741,6386 Z"/>
       </g>
      </g>
      <g class="com.sun.star.drawing.RectangleShape">
       <g id="id22">
        <path fill="rgb(183,18,52)" stroke="none" d="M 3741,6351 L 4129,6351 C 4188,6351 4235,6304 4235,6245 L 4235,5468 C 4235,5409 4188,5362 4129,5362 L 3352,5362 C 3293,5362 3246,5409 3246,5468 L 3246,6245 C 3246,6304 3293,6351 3352,6351 L 3741,6351 Z"/>
        <path fill="none" stroke="rgb(0,0,0)" stroke-width="71" stroke-linejoin="round" d="M 3741,6351 L 4129,6351 C 4188,6351 4235,6304 4235,6245 L 4235,5468 C 4235,5409 4188,5362 4129,5362 L 3352,5362 C 3293,5362 3246,5409 3246,5468 L 3246,6245 C 3246,6304 3293,6351 3352,6351 L 3741,6351 Z"/>
       </g>
      </g>
      <g class="com.sun.star.drawing.RectangleShape">
       <g id="id23">
        <path fill="rgb(0,0,0)" stroke="none" d="M 3741,5328 L 4182,5328 C 4231,5328 4270,5289 4270,5240 L 4270,4357 C 4270,4308 4231,4269 4182,4269 L 3299,4269 C 3250,4269 3211,4308 3211,4357 L 3211,5240 C 3211,5289 3250,5328 3299,5328 L 3741,5328 Z"/>
        <path fill="none" stroke="rgb(0,0,0)" stroke-width="71" stroke-linejoin="round" d="M 3741,5328 L 4182,5328 C 4231,5328 4270,5289 4270,5240 L 4270,4357 C 4270,4308 4231,4269 4182,4269 L 3299,4269 C 3250,4269 3211,4308 3211,4357 L 3211,5240 C 3211,5289 3250,5328 3299,5328 L 3741,5328 Z"/>
       </g>
      </g>
      <g class="com.sun.star.drawing.RectangleShape">
       <g id="id24">
        <path fill="rgb(183,18,52)" stroke="none" d="M 3741,5291 L 4129,5291 C 4188,5291 4235,5244 4235,5185 L 4235,4408 C 4235,4349 4188,4302 4129,4302 L 3352,4302 C 3293,4302 3246,4349 3246,4408 L 3246,5185 C 3246,5244 3293,5291 3352,5291 L 3741,5291 Z"/>
        <path fill="none" stroke="rgb(0,0,0)" stroke-width="71" stroke-linejoin="round" d="M 3741,5291 L 4129,5291 C 4188,5291 4235,5244 4235,5185 L 4235,4408 C 4235,4349 4188,4302 4129,4302 L 3352,4302 C 3293,4302 3246,4349 3246,4408 L 3246,5185 C 3246,5244 3293,5291 3352,5291 L 3741,5291 Z"/>
       </g>
      </g>
      <g class="com.sun.star.drawing.RectangleShape">
       <g id="id25">
        <path fill="rgb(0,0,0)" stroke="none" d="M 3741,4270 L 4182,4270 C 4231,4270 4270,4231 4270,4182 L 4270,3299 C 4270,3250 4231,3211 4182,3211 L 3299,3211 C 3250,3211 3211,3250 3211,3299 L 3211,4182 C 3211,4231 3250,4270 3299,4270 L 3741,4270 Z"/>
        <path fill="none" stroke="rgb(0,0,0)" stroke-width="71" stroke-linejoin="round" d="M 3741,4270 L 4182,4270 C 4231,4270 4270,4231 4270,4182 L 4270,3299 C 4270,3250 4231,3211 4182,3211 L 3299,3211 C 3250,3211 3211,3250 3211,3299 L 3211,4182 C 3211,4231 3250,4270 3299,4270 L 3741,4270 Z"/>
       </g>
      </g>
      <g class="com.sun.star.drawing.RectangleShape">
       <g id="id26">
        <path fill="rgb(183,18,52)" stroke="none" d="M 3741,4235 L 4129,4235 C 4188,4235 4235,4188 4235,4129 L 4235,3352 C 4235,3293 4188,3246 4129,3246 L 3352,3246 C 3293,3246 3246,3293 3246,3352 L 3246,4129 C 3246,4188 3293,4235 3352,4235 L 3741,4235 Z"/>
        <path fill="none" stroke="rgb(0,0,0)" stroke-width="71" stroke-linejoin="round" d="M 3741,4235 L 4129,4235 C 4188,4235 4235,4188 4235,4129 L 4235,3352 C 4235,3293 4188,3246 4129,3246 L 3352,3246 C 3293,3246 3246,3293 3246,3352 L 3246,4129 C 3246,4188 3293,4235 3352,4235 L 3741,4235 Z"/>
       </g>
      </g>
      <g class="com.sun.star.drawing.RectangleShape">
       <g id="id27">
        <path fill="rgb(0,0,0)" stroke="none" d="M 4800,6386 L 5241,6386 C 5290,6386 5329,6347 5329,6298 L 5329,5415 C 5329,5366 5290,5327 5241,5327 L 4358,5327 C 4309,5327 4270,5366 4270,5415 L 4270,6298 C 4270,6347 4309,6386 4358,6386 L 4800,6386 Z"/>
        <path fill="none" stroke="rgb(0,0,0)" stroke-width="71" stroke-linejoin="round" d="M 4800,6386 L 5241,6386 C 5290,6386 5329,6347 5329,6298 L 5329,5415 C 5329,5366 5290,5327 5241,5327 L 4358,5327 C 4309,5327 4270,5366 4270,5415 L 4270,6298 C 4270,6347 4309,6386 4358,6386 L 4800,6386 Z"/>
       </g>
      </g>
      <g class="com.sun.star.drawing.RectangleShape">
       <g id="id28">
        <path fill="rgb(183,18,52)" stroke="none" d="M 4800,6351 L 5188,6351 C 5247,6351 5294,6304 5294,6245 L 5294,5468 C 5294,5409 5247,5362 5188,5362 L 4411,5362 C 4352,5362 4305,5409 4305,5468 L 4305,6245 C 4305,6304 4352,6351 4411,6351 L 4800,6351 Z"/>
        <path fill="none" stroke="rgb(0,0,0)" stroke-width="71" stroke-linejoin="round" d="M 4800,6351 L 5188,6351 C 5247,6351 5294,6304 5294,6245 L 5294,5468 C 5294,5409 5247,5362 5188,5362 L 4411,5362 C 4352,5362 4305,5409 4305,5468 L 4305,6245 C 4305,6304 4352,6351 4411,6351 L 4800,6351 Z"/>
       </g>
      </g>
      <g class="com.sun.star.drawing.RectangleShape">
       <g id="id29">
        <path fill="rgb(0,0,0)" stroke="none" d="M 4800,5328 L 5241,5328 C 5290,5328 5329,5289 5329,5240 L 5329,4357 C 5329,4308 5290,4269 5241,4269 L 4358,4269 C 4309,4269 4270,4308 4270,4357 L 4270,5240 C 4270,5289 4309,5328 4358,5328 L 4800,5328 Z"/>
        <path fill="none" stroke="rgb(0,0,0)" stroke-width="71" stroke-linejoin="round" d="M 4800,5328 L 5241,5328 C 5290,5328 5329,5289 5329,5240 L 5329,4357 C 5329,4308 5290,4269 5241,4269 L 4358,4269 C 4309,4269 4270,4308 4270,4357 L 4270,5240 C 4270,5289 4309,5328 4358,5328 L 4800,5328 Z"/>
       </g>
      </g>
      <g class="com.sun.star.drawing.RectangleShape">
       <g id="id30">
        <path fill="rgb(183,18,52)" stroke="none" d="M 4800,5291 L 5188,5291 C 5247,5291 5294,5244 5294,5185 L 5294,4408 C 5294,4349 5247,4302 5188,4302 L 4411,4302 C 4352,4302 4305,4349 4305,4408 L 4305,5185 C 4305,5244 4352,5291 4411,5291 L 4800,5291 Z"/>
        <path fill="none" stroke="rgb(0,0,0)" stroke-width="71" stroke-linejoin="round" d="M 4800,5291 L 5188,5291 C 5247,5291 5294,5244 5294,5185 L 5294,4408 C 5294,4349 5247,4302 5188,4302 L 4411,4302 C 4352,4302 4305,4349 4305,4408 L 4305,5185 C 4305,5244 4352,5291 4411,5291 L 4800,5291 Z"/>
       </g>
      </g>
      <g class="com.sun.star.drawing.RectangleShape">
       <g id="id31">
        <path fill="rgb(0,0,0)" stroke="none" d="M 4800,4270 L 5241,4270 C 5290,4270 5329,4231 5329,4182 L 5329,3299 C 5329,3250 5290,3211 5241,3211 L 4358,3211 C 4309,3211 4270,3250 4270,3299 L 4270,4182 C 4270,4231 4309,4270 4358,4270 L 4800,4270 Z"/>
        <path fill="none" stroke="rgb(0,0,0)" stroke-width="71" stroke-linejoin="round" d="M 4800,4270 L 5241,4270 C 5290,4270 5329,4231 5329,4182 L 5329,3299 C 5329,3250 5290,3211 5241,3211 L 4358,3211 C 4309,3211 4270,3250 4270,3299 L 4270,4182 C 4270,4231 4309,4270 4358,4270 L 4800,4270 Z"/>
       </g>
      </g>
      <g class="com.sun.star.drawing.RectangleShape">
       <g id="id32">
        <path fill="rgb(183,18,52)" stroke="none" d="M 4800,4235 L 5188,4235 C 5247,4235 5294,4188 5294,4129 L 5294,3352 C 5294,3293 5247,3246 5188,3246 L 4411,3246 C 4352,3246 4305,3293 4305,3352 L 4305,4129 C 4305,4188 4352,4235 4411,4235 L 4800,4235 Z"/>
        <path fill="none" stroke="rgb(0,0,0)" stroke-width="71" stroke-linejoin="round" d="M 4800,4235 L 5188,4235 C 5247,4235 5294,4188 5294,4129 L 5294,3352 C 5294,3293 5247,3246 5188,3246 L 4411,3246 C 4352,3246 4305,3293 4305,3352 L 4305,4129 C 4305,4188 4352,4235 4411,4235 L 4800,4235 Z"/>
       </g>
      </g>
      <g class="com.sun.star.drawing.RectangleShape">
       <g id="id33">
        <path fill="rgb(0,0,0)" stroke="none" d="M 5858,6386 L 6299,6386 C 6348,6386 6387,6347 6387,6298 L 6387,5415 C 6387,5366 6348,5327 6299,5327 L 5416,5327 C 5367,5327 5328,5366 5328,5415 L 5328,6298 C 5328,6347 5367,6386 5416,6386 L 5858,6386 Z"/>
        <path fill="none" stroke="rgb(0,0,0)" stroke-width="71" stroke-linejoin="round" d="M 5858,6386 L 6299,6386 C 6348,6386 6387,6347 6387,6298 L 6387,5415 C 6387,5366 6348,5327 6299,5327 L 5416,5327 C 5367,5327 5328,5366 5328,5415 L 5328,6298 C 5328,6347 5367,6386 5416,6386 L 5858,6386 Z"/>
       </g>
      </g>
      <g class="com.sun.star.drawing.RectangleShape">
       <g id="id34">
        <path fill="rgb(183,18,52)" stroke="none" d="M 5856,6351 L 6244,6351 C 6303,6351 6350,6304 6350,6245 L 6350,5468 C 6350,5409 6303,5362 6244,5362 L 5467,5362 C 5408,5362 5361,5409 5361,5468 L 5361,6245 C 5361,6304 5408,6351 5467,6351 L 5856,6351 Z"/>
        <path fill="none" stroke="rgb(0,0,0)" stroke-width="71" stroke-linejoin="round" d="M 5856,6351 L 6244,6351 C 6303,6351 6350,6304 6350,6245 L 6350,5468 C 6350,5409 6303,5362 6244,5362 L 5467,5362 C 5408,5362 5361,5409 5361,5468 L 5361,6245 C 5361,6304 5408,6351 5467,6351 L 5856,6351 Z"/>
       </g>
      </g>
      <g class="com.sun.star.drawing.RectangleShape">
       <g id="id35">
        <path fill="rgb(0,0,0)" stroke="none" d="M 5858,5328 L 6299,5328 C 6348,5328 6387,5289 6387,5240 L 6387,4357 C 6387,4308 6348,4269 6299,4269 L 5416,4269 C 5367,4269 5328,4308 5328,4357 L 5328,5240 C 5328,5289 5367,5328 5416,5328 L 5858,5328 Z"/>
        <path fill="none" stroke="rgb(0,0,0)" stroke-width="71" stroke-linejoin="round" d="M 5858,5328 L 6299,5328 C 6348,5328 6387,5289 6387,5240 L 6387,4357 C 6387,4308 6348,4269 6299,4269 L 5416,4269 C 5367,4269 5328,4308 5328,4357 L 5328,5240 C 5328,5289 5367,5328 5416,5328 L 5858,5328 Z"/>
       </g>
      </g>
      <g class="com.sun.star.drawing.RectangleShape">
       <g id="id36">
        <path fill="rgb(183,18,52)" stroke="none" d="M 5856,5291 L 6244,5291 C 6303,5291 6350,5244 6350,5185 L 6350,4408 C 6350,4349 6303,4302 6244,4302 L 5467,4302 C 5408,4302 5361,4349 5361,4408 L 5361,5185 C 5361,5244 5408,5291 5467,5291 L 5856,5291 Z"/>
        <path fill="none" stroke="rgb(0,0,0)" stroke-width="71" stroke-linejoin="round" d="M 5856,5291 L 6244,5291 C 6303,5291 6350,5244 6350,5185 L 6350,4408 C 6350,4349 6303,4302 6244,4302 L 5467,4302 C 5408,4302 5361,4349 5361,4408 L 5361,5185 C 5361,5244 5408,5291 5467,5291 L 5856,5291 Z"/>
       </g>
      </g>
      <g class="com.sun.star.drawing.RectangleShape">
       <g id="id37">
        <path fill="rgb(0,0,0)" stroke="none" d="M 5858,4270 L 6299,4270 C 6348,4270 6387,4231 6387,4182 L 6387,3299 C 6387,3250 6348,3211 6299,3211 L 5416,3211 C 5367,3211 5328,3250 5328,3299 L 5328,4182 C 5328,4231 5367,4270 5416,4270 L 5858,4270 Z"/>
        <path fill="none" stroke="rgb(0,0,0)" stroke-width="71" stroke-linejoin="round" d="M 5858,4270 L 6299,4270 C 6348,4270 6387,4231 6387,4182 L 6387,3299 C 6387,3250 6348,3211 6299,3211 L 5416,3211 C 5367,3211 5328,3250 5328,3299 L 5328,4182 C 5328,4231 5367,4270 5416,4270 L 5858,4270 Z"/>
       </g>
      </g>
      <g class="com.sun.star.drawing.RectangleShape">
       <g id="id38">
        <path fill="rgb(183,18,52)" stroke="none" d="M 5856,4235 L 6244,4235 C 6303,4235 6350,4188 6350,4129 L 6350,3352 C 6350,3293 6303,3246 6244,3246 L 5467,3246 C 5408,3246 5361,3293 5361,3352 L 5361,4129 C 5361,4188 5408,4235 5467,4235 L 5856,4235 Z"/>
        <path fill="none" stroke="rgb(0,0,0)" stroke-width="71" stroke-linejoin="round" d="M 5856,4235 L 6244,4235 C 6303,4235 6350,4188 6350,4129 L 6350,3352 C 6350,3293 6303,3246 6244,3246 L 5467,3246 C 5408,3246 5361,3293 5361,3352 L 5361,4129 C 5361,4188 5408,4235 5467,4235 L 5856,4235 Z"/>
       </g>
      </g>
      <g class="com.sun.star.drawing.RectangleShape">
       <g id="id39">
        <path fill="rgb(0,0,0)" stroke="none" d="M 6916,6386 L 7357,6386 C 7406,6386 7445,6347 7445,6298 L 7445,5415 C 7445,5366 7406,5327 7357,5327 L 6474,5327 C 6425,5327 6386,5366 6386,5415 L 6386,6298 C 6386,6347 6425,6386 6474,6386 L 6916,6386 Z"/>
        <path fill="none" stroke="rgb(0,0,0)" stroke-width="71" stroke-linejoin="round" d="M 6916,6386 L 7357,6386 C 7406,6386 7445,6347 7445,6298 L 7445,5415 C 7445,5366 7406,5327 7357,5327 L 6474,5327 C 6425,5327 6386,5366 6386,5415 L 6386,6298 C 6386,6347 6425,6386 6474,6386 L 6916,6386 Z"/>
       </g>
      </g>
      <g class="com.sun.star.drawing.RectangleShape">
       <g id="id40">
        <path fill="rgb(0,70,173)" stroke="none" d="M 6916,6351 L 7304,6351 C 7363,6351 7410,6304 7410,6245 L 7410,5468 C 7410,5409 7363,5362 7304,5362 L 6527,5362 C 6468,5362 6421,5409 6421,5468 L 6421,6245 C 6421,6304 6468,6351 6527,6351 L 6916,6351 Z"/>
        <path fill="none" stroke="rgb(0,0,0)" stroke-width="71" stroke-linejoin="round" d="M 6916,6351 L 7304,6351 C 7363,6351 7410,6304 7410,6245 L 7410,5468 C 7410,5409 7363,5362 7304,5362 L 6527,5362 C 6468,5362 6421,5409 6421,5468 L 6421,6245 C 6421,6304 6468,6351 6527,6351 L 6916,6351 Z"/>
       </g>
      </g>
      <g class="com.sun.star.drawing.RectangleShape">
       <g id="id41">
        <path fill="rgb(0,0,0)" stroke="none" d="M 6916,5328 L 7357,5328 C 7406,5328 7445,5289 7445,5240 L 7445,4357 C 7445,4308 7406,4269 7357,4269 L 6474,4269 C 6425,4269 6386,4308 6386,4357 L 6386,5240 C 6386,5289 6425,5328 6474,5328 L 6916,5328 Z"/>
        <path fill="none" stroke="rgb(0,0,0)" stroke-width="71" stroke-linejoin="round" d="M 6916,5328 L 7357,5328 C 7406,5328 7445,5289 7445,5240 L 7445,4357 C 7445,4308 7406,4269 7357,4269 L 6474,4269 C 6425,4269 6386,4308 6386,4357 L 6386,5240 C 6386,5289 6425,5328 6474,5328 L 6916,5328 Z"/>
       </g>
      </g>
      <g class="com.sun.star.drawing.RectangleShape">
       <g id="id42">
        <path fill="rgb(0,70,173)" stroke="none" d="M 6916,5291 L 7304,5291 C 7363,5291 7410,5244 7410,5185 L 7410,4408 C 7410,4349 7363,4302 7304,4302 L 6527,4302 C 6468,4302 6421,4349 6421,4408 L 6421,5185 C 6421,5244 6468,5291 6527,5291 L 6916,5291 Z"/>
        <path fill="none" stroke="rgb(0,0,0)" stroke-width="71" stroke-linejoin="round" d="M 6916,5291 L 7304,5291 C 7363,5291 7410,5244 7410,5185 L 7410,4408 C 7410,4349 7363,4302 7304,4302 L 6527,4302 C 6468,4302 6421,4349 6421,4408 L 6421,5185 C 6421,5244 6468,5291 6527,5291 L 6916,5291 Z"/>
       </g>
      </g>
      <g class="com.sun.star.drawing.RectangleShape">
       <g id="id43">
        <path fill="rgb(0,0,0)" stroke="none" d="M 6916,4270 L 7357,4270 C 7406,4270 7445,4231 7445,4182 L 7445,3299 C 7445,3250 7406,3211 7357,3211 L 6474,3211 C 6425,3211 6386,3250 6386,3299 L 6386,4182 C 6386,4231 6425,4270 6474,4270 L 6916,4270 Z"/>
        <path fill="none" stroke="rgb(0,0,0)" stroke-width="71" stroke-linejoin="round" d="M 6916,4270 L 7357,4270 C 7406,4270 7445,4231 7445,4182 L 7445,3299 C 7445,3250 7406,3211 7357,3211 L 6474,3211 C 6425,3211 6386,3250 6386,3299 L 6386,4182 C 6386,4231 6425,4270 6474,4270 L 6916,4270 Z"/>
       </g>
      </g>
      <g class="com.sun.star.drawing.RectangleShape">
       <g id="id44">
        <path fill="rgb(0,70,173)" stroke="none" d="M 6916,4235 L 7304,4235 C 7363,4235 7410,4188 7410,4129 L 7410,3352 C 7410,3293 7363,3246 7304,3246 L 6527,3246 C 6468,3246 6421,3293 6421,3352 L 6421,4129 C 6421,4188 6468,4235 6527,4235 L 6916,4235 Z"/>
        <path fill="none" stroke="rgb(0,0,0)" stroke-width="71" stroke-linejoin="round" d="M 6916,4235 L 7304,4235 C 7363,4235 7410,4188 7410,4129 L 7410,3352 C 7410,3293 7363,3246 7304,3246 L 6527,3246 C 6468,3246 6421,3293 6421,3352 L 6421,4129 C 6421,4188 6468,4235 6527,4235 L 6916,4235 Z"/>
       </g>
      </g>
      <g class="com.sun.star.drawing.RectangleShape">
       <g id="id45">
        <path fill="rgb(0,0,0)" stroke="none" d="M 7975,6386 L 8416,6386 C 8465,6386 8504,6347 8504,6298 L 8504,5415 C 8504,5366 8465,5327 8416,5327 L 7533,5327 C 7484,5327 7445,5366 7445,5415 L 7445,6298 C 7445,6347 7484,6386 7533,6386 L 7975,6386 Z"/>
        <path fill="none" stroke="rgb(0,0,0)" stroke-width="71" stroke-linejoin="round" d="M 7975,6386 L 8416,6386 C 8465,6386 8504,6347 8504,6298 L 8504,5415 C 8504,5366 8465,5327 8416,5327 L 7533,5327 C 7484,5327 7445,5366 7445,5415 L 7445,6298 C 7445,6347 7484,6386 7533,6386 L 7975,6386 Z"/>
       </g>
      </g>
      <g class="com.sun.star.drawing.RectangleShape">
       <g id="id46">
        <path fill="rgb(0,70,173)" stroke="none" d="M 7975,6351 L 8363,6351 C 8422,6351 8469,6304 8469,6245 L 8469,5468 C 8469,5409 8422,5362 8363,5362 L 7586,5362 C 7527,5362 7480,5409 7480,5468 L 7480,6245 C 7480,6304 7527,6351 7586,6351 L 7975,6351 Z"/>
        <path fill="none" stroke="rgb(0,0,0)" stroke-width="71" stroke-linejoin="round" d="M 7975,6351 L 8363,6351 C 8422,6351 8469,6304 8469,6245 L 8469,5468 C 8469,5409 8422,5362 8363,5362 L 7586,5362 C 7527,5362 7480,5409 7480,5468 L 7480,6245 C 7480,6304 7527,6351 7586,6351 L 7975,6351 Z"/>
       </g>
      </g>
      <g class="com.sun.star.drawing.RectangleShape">
       <g id="id47">
        <path fill="rgb(0,0,0)" stroke="none" d="M 7975,5328 L 8416,5328 C 8465,5328 8504,5289 8504,5240 L 8504,4357 C 8504,4308 8465,4269 8416,4269 L 7533,4269 C 7484,4269 7445,4308 7445,4357 L 7445,5240 C 7445,5289 7484,5328 7533,5328 L 7975,5328 Z"/>
        <path fill="none" stroke="rgb(0,0,0)" stroke-width="71" stroke-linejoin="round" d="M 7975,5328 L 8416,5328 C 8465,5328 8504,5289 8504,5240 L 8504,4357 C 8504,4308 8465,4269 8416,4269 L 7533,4269 C 7484,4269 7445,4308 7445,4357 L 7445,5240 C 7445,5289 7484,5328 7533,5328 L 7975,5328 Z"/>
       </g>
      </g>
      <g class="com.sun.star.drawing.RectangleShape">
       <g id="id48">
        <path fill="rgb(0,70,173)" stroke="none" d="M 7975,5291 L 8363,5291 C 8422,5291 8469,5244 8469,5185 L 8469,4408 C 8469,4349 8422,4302 8363,4302 L 7586,4302 C 7527,4302 7480,4349 7480,4408 L 7480,5185 C 7480,5244 7527,5291 7586,5291 L 7975,5291 Z"/>
        <path fill="none" stroke="rgb(0,0,0)" stroke-width="71" stroke-linejoin="round" d="M 7975,5291 L 8363,5291 C 8422,5291 8469,5244 8469,5185 L 8469,4408 C 8469,4349 8422,4302 8363,4302 L 7586,4302 C 7527,4302 7480,4349 7480,4408 L 7480,5185 C 7480,5244 7527,5291 7586,5291 L 7975,5291 Z"/>
       </g>
      </g>
      <g class="com.sun.star.drawing.RectangleShape">
       <g id="id49">
        <path fill="rgb(0,0,0)" stroke="none" d="M 7975,4270 L 8416,4270 C 8465,4270 8504,4231 8504,4182 L 8504,3299 C 8504,3250 8465,3211 8416,3211 L 7533,3211 C 7484,3211 7445,3250 7445,3299 L 7445,4182 C 7445,4231 7484,4270 7533,4270 L 7975,4270 Z"/>
        <path fill="none" stroke="rgb(0,0,0)" stroke-width="71" stroke-linejoin="round" d="M 7975,4270 L 8416,4270 C 8465,4270 8504,4231 8504,4182 L 8504,3299 C 8504,3250 8465,3211 8416,3211 L 7533,3211 C 7484,3211 7445,3250 7445,3299 L 7445,4182 C 7445,4231 7484,4270 7533,4270 L 7975,4270 Z"/>
       </g>
      </g>
      <g class="com.sun.star.drawing.RectangleShape">
       <g id="id50">
        <path fill="rgb(0,70,173)" stroke="none" d="M 7975,4235 L 8363,4235 C 8422,4235 8469,4188 8469,4129 L 8469,3352 C 8469,3293 8422,3246 8363,3246 L 7586,3246 C 7527,3246 7480,3293 7480,3352 L 7480,4129 C 7480,4188 7527,4235 7586,4235 L 7975,4235 Z"/>
        <path fill="none" stroke="rgb(0,0,0)" stroke-width="71" stroke-linejoin="round" d="M 7975,4235 L 8363,4235 C 8422,4235 8469,4188 8469,4129 L 8469,3352 C 8469,3293 8422,3246 8363,3246 L 7586,3246 C 7527,3246 7480,3293 7480,3352 L 7480,4129 C 7480,4188 7527,4235 7586,4235 L 7975,4235 Z"/>
       </g>
      </g>
      <g class="com.sun.star.drawing.RectangleShape">
       <g id="id51">
        <path fill="rgb(0,0,0)" stroke="none" d="M 9033,6386 L 9474,6386 C 9523,6386 9562,6347 9562,6298 L 9562,5415 C 9562,5366 9523,5327 9474,5327 L 8591,5327 C 8542,5327 8503,5366 8503,5415 L 8503,6298 C 8503,6347 8542,6386 8591,6386 L 9033,6386 Z"/>
        <path fill="none" stroke="rgb(0,0,0)" stroke-width="71" stroke-linejoin="round" d="M 9033,6386 L 9474,6386 C 9523,6386 9562,6347 9562,6298 L 9562,5415 C 9562,5366 9523,5327 9474,5327 L 8591,5327 C 8542,5327 8503,5366 8503,5415 L 8503,6298 C 8503,6347 8542,6386 8591,6386 L 9033,6386 Z"/>
       </g>
      </g>
      <g class="com.sun.star.drawing.RectangleShape">
       <g id="id52">
        <path fill="rgb(0,70,173)" stroke="none" d="M 9031,6351 L 9419,6351 C 9478,6351 9525,6304 9525,6245 L 9525,5468 C 9525,5409 9478,5362 9419,5362 L 8642,5362 C 8583,5362 8536,5409 8536,5468 L 8536,6245 C 8536,6304 8583,6351 8642,6351 L 9031,6351 Z"/>
        <path fill="none" stroke="rgb(0,0,0)" stroke-width="71" stroke-linejoin="round" d="M 9031,6351 L 9419,6351 C 9478,6351 9525,6304 9525,6245 L 9525,5468 C 9525,5409 9478,5362 9419,5362 L 8642,5362 C 8583,5362 8536,5409 8536,5468 L 8536,6245 C 8536,6304 8583,6351 8642,6351 L 9031,6351 Z"/>
       </g>
      </g>
      <g class="com.sun.star.drawing.RectangleShape">
       <g id="id53">
        <path fill="rgb(0,0,0)" stroke="none" d="M 9033,5328 L 9474,5328 C 9523,5328 9562,5289 9562,5240 L 9562,4357 C 9562,4308 9523,4269 9474,4269 L 8591,4269 C 8542,4269 8503,4308 8503,4357 L 8503,5240 C 8503,5289 8542,5328 8591,5328 L 9033,5328 Z"/>
        <path fill="none" stroke="rgb(0,0,0)" stroke-width="71" stroke-linejoin="round" d="M 9033,5328 L 9474,5328 C 9523,5328 9562,5289 9562,5240 L 9562,4357 C 9562,4308 9523,4269 9474,4269 L 8591,4269 C 8542,4269 8503,4308 8503,4357 L 8503,5240 C 8503,5289 8542,5328 8591,5328 L 9033,5328 Z"/>
       </g>
      </g>
      <g class="com.sun.star.drawing.RectangleShape">
       <g id="id54">
        <path fill="rgb(0,70,173)" stroke="none" d="M 9031,5291 L 9419,5291 C 9478,5291 9525,5244 9525,5185 L 9525,4408 C 9525,4349 9478,4302 9419,4302 L 8642,4302 C 8583,4302 8536,4349 8536,4408 L 8536,5185 C 8536,5244 8583,5291 8642,5291 L 9031,5291 Z"/>
        <path fill="none" stroke="rgb(0,0,0)" stroke-width="71" stroke-linejoin="round" d="M 9031,5291 L 9419,5291 C 9478,5291 9525,5244 9525,5185 L 9525,4408 C 9525,4349 9478,4302 9419,4302 L 8642,4302 C 8583,4302 8536,4349 8536,4408 L 8536,5185 C 8536,5244 8583,5291 8642,5291 L 9031,5291 Z"/>
       </g>
      </g>
      <g class="com.sun.star.drawing.RectangleShape">
       <g id="id55">
        <path fill="rgb(0,0,0)" stroke="none" d="M 9033,4270 L 9474,4270 C 9523,4270 9562,4231 9562,4182 L 9562,3299 C 9562,3250 9523,3211 9474,3211 L 8591,3211 C 8542,3211 8503,3250 8503,3299 L 8503,4182 C 8503,4231 8542,4270 8591,4270 L 9033,4270 Z"/>
        <path fill="none" stroke="rgb(0,0,0)" stroke-width="71" stroke-linejoin="round" d="M 9033,4270 L 9474,4270 C 9523,4270 9562,4231 9562,4182 L 9562,3299 C 9562,3250 9523,3211 9474,3211 L 8591,3211 C 8542,3211 8503,3250 8503,3299 L 8503,4182 C 8503,4231 8542,4270 8591,4270 L 9033,4270 Z"/>
       </g>
      </g>
      <g class="com.sun.star.drawing.RectangleShape">
       <g id="id56">
        <path fill="rgb(0,70,173)" stroke="none" d="M 9031,4235 L 9419,4235 C 9478,4235 9525,4188 9525,4129 L 9525,3352 C 9525,3293 9478,3246 9419,3246 L 8642,3246 C 8583,3246 8536,3293 8536,3352 L 8536,4129 C 8536,4188 8583,4235 8642,4235 L 9031,4235 Z"/>
        <path fill="none" stroke="rgb(0,0,0)" stroke-width="71" stroke-linejoin="round" d="M 9031,4235 L 9419,4235 C 9478,4235 9525,4188 9525,4129 L 9525,3352 C 9525,3293 9478,3246 9419,3246 L 8642,3246 C 8583,3246 8536,3293 8536,3352 L 8536,4129 C 8536,4188 8583,4235 8642,4235 L 9031,4235 Z"/>
       </g>
      </g>
      <g class="com.sun.star.drawing.RectangleShape">
       <g id="id57">
        <path fill="rgb(0,0,0)" stroke="none" d="M 10091,6386 L 10532,6386 C 10581,6386 10620,6347 10620,6298 L 10620,5415 C 10620,5366 10581,5327 10532,5327 L 9649,5327 C 9600,5327 9561,5366 9561,5415 L 9561,6298 C 9561,6347 9600,6386 9649,6386 L 10091,6386 Z"/>
        <path fill="none" stroke="rgb(0,0,0)" stroke-width="71" stroke-linejoin="round" d="M 10091,6386 L 10532,6386 C 10581,6386 10620,6347 10620,6298 L 10620,5415 C 10620,5366 10581,5327 10532,5327 L 9649,5327 C 9600,5327 9561,5366 9561,5415 L 9561,6298 C 9561,6347 9600,6386 9649,6386 L 10091,6386 Z"/>
       </g>
      </g>
      <g class="com.sun.star.drawing.RectangleShape">
       <g id="id58">
        <path fill="rgb(255,88,0)" stroke="none" d="M 10091,6351 L 10479,6351 C 10538,6351 10585,6304 10585,6245 L 10585,5468 C 10585,5409 10538,5362 10479,5362 L 9702,5362 C 9643,5362 9596,5409 9596,5468 L 9596,6245 C 9596,6304 9643,6351 9702,6351 L 10091,6351 Z"/>
        <path fill="none" stroke="rgb(0,0,0)" stroke-width="71" stroke-linejoin="round" d="M 10091,6351 L 10479,6351 C 10538,6351 10585,6304 10585,6245 L 10585,5468 C 10585,5409 10538,5362 10479,5362 L 9702,5362 C 9643,5362 9596,5409 9596,5468 L 9596,6245 C 9596,6304 9643,6351 9702,6351 L 10091,6351 Z"/>
       </g>
      </g>
      <g class="com.sun.star.drawing.RectangleShape">
       <g id="id59">
        <path fill="rgb(0,0,0)" stroke="none" d="M 10091,5328 L 10532,5328 C 10581,5328 10620,5289 10620,5240 L 10620,4357 C 10620,4308 10581,4269 10532,4269 L 9649,4269 C 9600,4269 9561,4308 9561,4357 L 9561,5240 C 9561,5289 9600,5328 9649,5328 L 10091,5328 Z"/>
        <path fill="none" stroke="rgb(0,0,0)" stroke-width="71" stroke-linejoin="round" d="M 10091,5328 L 10532,5328 C 10581,5328 10620,5289 10620,5240 L 10620,4357 C 10620,4308 10581,4269 10532,4269 L 9649,4269 C 9600,4269 9561,4308 9561,4357 L 9561,5240 C 9561,5289 9600,5328 9649,5328 L 10091,5328 Z"/>
       </g>
      </g>
      <g class="com.sun.star.drawing.RectangleShape">
       <g id="id60">
        <path fill="rgb(255,88,0)" stroke="none" d="M 10091,5291 L 10479,5291 C 10538,5291 10585,5244 10585,5185 L 10585,4408 C 10585,4349 10538,4302 10479,4302 L 9702,4302 C 9643,4302 9596,4349 9596,4408 L 9596,5185 C 9596,5244 9643,5291 9702,5291 L 10091,5291 Z"/>
        <path fill="none" stroke="rgb(0,0,0)" stroke-width="71" stroke-linejoin="round" d="M 10091,5291 L 10479,5291 C 10538,5291 10585,5244 10585,5185 L 10585,4408 C 10585,4349 10538,4302 10479,4302 L 9702,4302 C 9643,4302 9596,4349 9596,4408 L 9596,5185 C 9596,5244 9643,5291 9702,5291 L 10091,5291 Z"/>
       </g>
      </g>
      <g class="com.sun.star.drawing.RectangleShape">
       <g id="id61">
        <path fill="rgb(0,0,0)" stroke="none" d="M 10091,4270 L 10532,4270 C 10581,4270 10620,4231 10620,4182 L 10620,3299 C 10620,3250 10581,3211 10532,3211 L 9649,3211 C 9600,3211 9561,3250 9561,3299 L 9561,4182 C 9561,4231 9600,4270 9649,4270 L 10091,4270 Z"/>
        <path fill="none" stroke="rgb(0,0,0)" stroke-width="71" stroke-linejoin="round" d="M 10091,4270 L 10532,4270 C 10581,4270 10620,4231 10620,4182 L 10620,3299 C 10620,3250 10581,3211 10532,3211 L 9649,3211 C 9600,3211 9561,3250 9561,3299 L 9561,4182 C 9561,4231 9600,4270 9649,4270 L 10091,4270 Z"/>
       </g>
      </g>
      <g class="com.sun.star.drawing.RectangleShape">
       <g id="id62">
        <path fill="rgb(255,88,0)" stroke="none" d="M 10091,4235 L 10479,4235 C 10538,4235 10585,4188 10585,4129 L 10585,3352 C 10585,3293 10538,3246 10479,3246 L 9702,3246 C 9643,3246 9596,3293 9596,3352 L 9596,4129 C 9596,4188 9643,4235 9702,4235 L 10091,4235 Z"/>
        <path fill="none" stroke="rgb(0,0,0)" stroke-width="71" stroke-linejoin="round" d="M 10091,4235 L 10479,4235 C 10538,4235 10585,4188 10585,4129 L 10585,3352 C 10585,3293 10538,3246 10479,3246 L 9702,3246 C 9643,3246 9596,3293 9596,3352 L 9596,4129 C 9596,4188 9643,4235 9702,4235 L 10091,4235 Z"/>
       </g>
      </g>
      <g class="com.sun.star.drawing.RectangleShape">
       <g id="id63">
        <path fill="rgb(0,0,0)" stroke="none" d="M 11150,6386 L 11591,6386 C 11640,6386 11679,6347 11679,6298 L 11679,5415 C 11679,5366 11640,5327 11591,5327 L 10708,5327 C 10659,5327 10620,5366 10620,5415 L 10620,6298 C 10620,6347 10659,6386 10708,6386 L 11150,6386 Z"/>
        <path fill="none" stroke="rgb(0,0,0)" stroke-width="71" stroke-linejoin="round" d="M 11150,6386 L 11591,6386 C 11640,6386 11679,6347 11679,6298 L 11679,5415 C 11679,5366 11640,5327 11591,5327 L 10708,5327 C 10659,5327 10620,5366 10620,5415 L 10620,6298 C 10620,6347 10659,6386 10708,6386 L 11150,6386 Z"/>
       </g>
      </g>
      <g class="com.sun.star.drawing.RectangleShape">
       <g id="id64">
        <path fill="rgb(255,88,0)" stroke="none" d="M 11150,6351 L 11538,6351 C 11597,6351 11644,6304 11644,6245 L 11644,5468 C 11644,5409 11597,5362 11538,5362 L 10761,5362 C 10702,5362 10655,5409 10655,5468 L 10655,6245 C 10655,6304 10702,6351 10761,6351 L 11150,6351 Z"/>
        <path fill="none" stroke="rgb(0,0,0)" stroke-width="71" stroke-linejoin="round" d="M 11150,6351 L 11538,6351 C 11597,6351 11644,6304 11644,6245 L 11644,5468 C 11644,5409 11597,5362 11538,5362 L 10761,5362 C 10702,5362 10655,5409 10655,5468 L 10655,6245 C 10655,6304 10702,6351 10761,6351 L 11150,6351 Z"/>
       </g>
      </g>
      <g class="com.sun.star.drawing.RectangleShape">
       <g id="id65">
        <path fill="rgb(0,0,0)" stroke="none" d="M 11150,5328 L 11591,5328 C 11640,5328 11679,5289 11679,5240 L 11679,4357 C 11679,4308 11640,4269 11591,4269 L 10708,4269 C 10659,4269 10620,4308 10620,4357 L 10620,5240 C 10620,5289 10659,5328 10708,5328 L 11150,5328 Z"/>
        <path fill="none" stroke="rgb(0,0,0)" stroke-width="71" stroke-linejoin="round" d="M 11150,5328 L 11591,5328 C 11640,5328 11679,5289 11679,5240 L 11679,4357 C 11679,4308 11640,4269 11591,4269 L 10708,4269 C 10659,4269 10620,4308 10620,4357 L 10620,5240 C 10620,5289 10659,5328 10708,5328 L 11150,5328 Z"/>
       </g>
      </g>
      <g class="com.sun.star.drawing.RectangleShape">
       <g id="id66">
        <path fill="rgb(255,88,0)" stroke="none" d="M 11150,5291 L 11538,5291 C 11597,5291 11644,5244 11644,5185 L 11644,4408 C 11644,4349 11597,4302 11538,4302 L 10761,4302 C 10702,4302 10655,4349 10655,4408 L 10655,5185 C 10655,5244 10702,5291 10761,5291 L 11150,5291 Z"/>
        <path fill="none" stroke="rgb(0,0,0)" stroke-width="71" stroke-linejoin="round" d="M 11150,5291 L 11538,5291 C 11597,5291 11644,5244 11644,5185 L 11644,4408 C 11644,4349 11597,4302 11538,4302 L 10761,4302 C 10702,4302 10655,4349 10655,4408 L 10655,5185 C 10655,5244 10702,5291 10761,5291 L 11150,5291 Z"/>
       </g>
      </g>
      <g class="com.sun.star.drawing.RectangleShape">
       <g id="id67">
        <path fill="rgb(0,0,0)" stroke="none" d="M 11150,4270 L 11591,4270 C 11640,4270 11679,4231 11679,4182 L 11679,3299 C 11679,3250 11640,3211 11591,3211 L 10708,3211 C 10659,3211 10620,3250 10620,3299 L 10620,4182 C 10620,4231 10659,4270 10708,4270 L 11150,4270 Z"/>
        <path fill="none" stroke="rgb(0,0,0)" stroke-width="71" stroke-linejoin="round" d="M 11150,4270 L 11591,4270 C 11640,4270 11679,4231 11679,4182 L 11679,3299 C 11679,3250 11640,3211 11591,3211 L 10708,3211 C 10659,3211 10620,3250 10620,3299 L 10620,4182 C 10620,4231 10659,4270 10708,4270 L 11150,4270 Z"/>
       </g>
      </g>
      <g class="com.sun.star.drawing.RectangleShape">
       <g id="id68">
        <path fill="rgb(255,88,0)" stroke="none" d="M 11150,4235 L 11538,4235 C 11597,4235 11644,4188 11644,4129 L 11644,3352 C 11644,3293 11597,3246 11538,3246 L 10761,3246 C 10702,3246 10655,3293 10655,3352 L 10655,4129 C 10655,4188 10702,4235 10761,4235 L 11150,4235 Z"/>
        <path fill="none" stroke="rgb(0,0,0)" stroke-width="71" stroke-linejoin="round" d="M 11150,4235 L 11538,4235 C 11597,4235 11644,4188 11644,4129 L 11644,3352 C 11644,3293 11597,3246 11538,3246 L 10761,3246 C 10702,3246 10655,3293 10655,3352 L 10655,4129 C 10655,4188 10702,4235 10761,4235 L 11150,4235 Z"/>
       </g>
      </g>
      <g class="com.sun.star.drawing.RectangleShape">
       <g id="id69">
        <path fill="rgb(0,0,0)" stroke="none" d="M 12208,6386 L 12649,6386 C 12698,6386 12737,6347 12737,6298 L 12737,5415 C 12737,5366 12698,5327 12649,5327 L 11766,5327 C 11717,5327 11678,5366 11678,5415 L 11678,6298 C 11678,6347 11717,6386 11766,6386 L 12208,6386 Z"/>
        <path fill="none" stroke="rgb(0,0,0)" stroke-width="71" stroke-linejoin="round" d="M 12208,6386 L 12649,6386 C 12698,6386 12737,6347 12737,6298 L 12737,5415 C 12737,5366 12698,5327 12649,5327 L 11766,5327 C 11717,5327 11678,5366 11678,5415 L 11678,6298 C 11678,6347 11717,6386 11766,6386 L 12208,6386 Z"/>
       </g>
      </g>
      <g class="com.sun.star.drawing.RectangleShape">
       <g id="id70">
        <path fill="rgb(255,88,0)" stroke="none" d="M 12206,6351 L 12594,6351 C 12653,6351 12700,6304 12700,6245 L 12700,5468 C 12700,5409 12653,5362 12594,5362 L 11817,5362 C 11758,5362 11711,5409 11711,5468 L 11711,6245 C 11711,6304 11758,6351 11817,6351 L 12206,6351 Z"/>
        <path fill="none" stroke="rgb(0,0,0)" stroke-width="71" stroke-linejoin="round" d="M 12206,6351 L 12594,6351 C 12653,6351 12700,6304 12700,6245 L 12700,5468 C 12700,5409 12653,5362 12594,5362 L 11817,5362 C 11758,5362 11711,5409 11711,5468 L 11711,6245 C 11711,6304 11758,6351 11817,6351 L 12206,6351 Z"/>
       </g>
      </g>
      <g class="com.sun.star.drawing.RectangleShape">
       <g id="id71">
        <path fill="rgb(0,0,0)" stroke="none" d="M 12208,5328 L 12649,5328 C 12698,5328 12737,5289 12737,5240 L 12737,4357 C 12737,4308 12698,4269 12649,4269 L 11766,4269 C 11717,4269 11678,4308 11678,4357 L 11678,5240 C 11678,5289 11717,5328 11766,5328 L 12208,5328 Z"/>
        <path fill="none" stroke="rgb(0,0,0)" stroke-width="71" stroke-linejoin="round" d="M 12208,5328 L 12649,5328 C 12698,5328 12737,5289 12737,5240 L 12737,4357 C 12737,4308 12698,4269 12649,4269 L 11766,4269 C 11717,4269 11678,4308 11678,4357 L 11678,5240 C 11678,5289 11717,5328 11766,5328 L 12208,5328 Z"/>
       </g>
      </g>
      <g class="com.sun.star.drawing.RectangleShape">
       <g id="id72">
        <path fill="rgb(255,88,0)" stroke="none" d="M 12206,5291 L 12594,5291 C 12653,5291 12700,5244 12700,5185 L 12700,4408 C 12700,4349 12653,4302 12594,4302 L 11817,4302 C 11758,4302 11711,4349 11711,4408 L 11711,5185 C 11711,5244 11758,5291 11817,5291 L 12206,5291 Z"/>
        <path fill="none" stroke="rgb(0,0,0)" stroke-width="71" stroke-linejoin="round" d="M 12206,5291 L 12594,5291 C 12653,5291 12700,5244 12700,5185 L 12700,4408 C 12700,4349 12653,4302 12594,4302 L 11817,4302 C 11758,4302 11711,4349 11711,4408 L 11711,5185 C 11711,5244 11758,5291 11817,5291 L 12206,5291 Z"/>
       </g>
      </g>
      <g class="com.sun.star.drawing.RectangleShape">
       <g id="id73">
        <path fill="rgb(0,0,0)" stroke="none" d="M 12208,4270 L 12649,4270 C 12698,4270 12737,4231 12737,4182 L 12737,3299 C 12737,3250 12698,3211 12649,3211 L 11766,3211 C 11717,3211 11678,3250 11678,3299 L 11678,4182 C 11678,4231 11717,4270 11766,4270 L 12208,4270 Z"/>
        <path fill="none" stroke="rgb(0,0,0)" stroke-width="71" stroke-linejoin="round" d="M 12208,4270 L 12649,4270 C 12698,4270 12737,4231 12737,4182 L 12737,3299 C 12737,3250 12698,3211 12649,3211 L 11766,3211 C 11717,3211 11678,3250 11678,3299 L 11678,4182 C 11678,4231 11717,4270 11766,4270 L 12208,4270 Z"/>
       </g>
      </g>
      <g class="com.sun.star.drawing.RectangleShape">
       <g id="id74">
        <path fill="rgb(255,88,0)" stroke="none" d="M 12206,4235 L 12594,4235 C 12653,4235 12700,4188 12700,4129 L 12700,3352 C 12700,3293 12653,3246 12594,3246 L 11817,3246 C 11758,3246 11711,3293 11711,3352 L 11711,4129 C 11711,4188 11758,4235 11817,4235 L 12206,4235 Z"/>
        <path fill="none" stroke="rgb(0,0,0)" stroke-width="71" stroke-linejoin="round" d="M 12206,4235 L 12594,4235 C 12653,4235 12700,4188 12700,4129 L 12700,3352 C 12700,3293 12653,3246 12594,3246 L 11817,3246 C 11758,3246 11711,3293 11711,3352 L 11711,4129 C 11711,4188 11758,4235 11817,4235 L 12206,4235 Z"/>
       </g>
      </g>
      <g class="com.sun.star.drawing.RectangleShape">
       <g id="id75">
        <path fill="rgb(0,0,0)" stroke="none" d="M 3741,9561 L 4182,9561 C 4231,9561 4270,9522 4270,9473 L 4270,8590 C 4270,8541 4231,8502 4182,8502 L 3299,8502 C 3250,8502 3211,8541 3211,8590 L 3211,9473 C 3211,9522 3250,9561 3299,9561 L 3741,9561 Z"/>
        <path fill="none" stroke="rgb(0,0,0)" stroke-width="71" stroke-linejoin="round" d="M 3741,9561 L 4182,9561 C 4231,9561 4270,9522 4270,9473 L 4270,8590 C 4270,8541 4231,8502 4182,8502 L 3299,8502 C 3250,8502 3211,8541 3211,8590 L 3211,9473 C 3211,9522 3250,9561 3299,9561 L 3741,9561 Z"/>
       </g>
      </g>
      <g class="com.sun.star.drawing.RectangleShape">
       <g id="id76">
        <path fill="rgb(255,213,0)" stroke="none" d="M 3741,9526 L 4129,9526 C 4188,9526 4235,9479 4235,9420 L 4235,8643 C 4235,8584 4188,8537 4129,8537 L 3352,8537 C 3293,8537 3246,8584 3246,8643 L 3246,9420 C 3246,9479 3293,9526 3352,9526 L 3741,9526 Z"/>
        <path fill="none" stroke="rgb(0,0,0)" stroke-width="71" stroke-linejoin="round" d="M 3741,9526 L 4129,9526 C 4188,9526 4235,9479 4235,9420 L 4235,8643 C 4235,8584 4188,8537 4129,8537 L 3352,8537 C 3293,8537 3246,8584 3246,8643 L 3246,9420 C 3246,9479 3293,9526 3352,9526 L 3741,9526 Z"/>
       </g>
      </g>
      <g class="com.sun.star.drawing.RectangleShape">
       <g id="id77">
        <path fill="rgb(0,0,0)" stroke="none" d="M 3741,8503 L 4182,8503 C 4231,8503 4270,8464 4270,8415 L 4270,7532 C 4270,7483 4231,7444 4182,7444 L 3299,7444 C 3250,7444 3211,7483 3211,7532 L 3211,8415 C 3211,8464 3250,8503 3299,8503 L 3741,8503 Z"/>
        <path fill="none" stroke="rgb(0,0,0)" stroke-width="71" stroke-linejoin="round" d="M 3741,8503 L 4182,8503 C 4231,8503 4270,8464 4270,8415 L 4270,7532 C 4270,7483 4231,7444 4182,7444 L 3299,7444 C 3250,7444 3211,7483 3211,7532 L 3211,8415 C 3211,8464 3250,8503 3299,8503 L 3741,8503 Z"/>
       </g>
      </g>
      <g class="com.sun.star.drawing.RectangleShape">
       <g id="id78">
        <path fill="rgb(255,213,0)" stroke="none" d="M 3741,8466 L 4129,8466 C 4188,8466 4235,8419 4235,8360 L 4235,7583 C 4235,7524 4188,7477 4129,7477 L 3352,7477 C 3293,7477 3246,7524 3246,7583 L 3246,8360 C 3246,8419 3293,8466 3352,8466 L 3741,8466 Z"/>
        <path fill="none" stroke="rgb(0,0,0)" stroke-width="71" stroke-linejoin="round" d="M 3741,8466 L 4129,8466 C 4188,8466 4235,8419 4235,8360 L 4235,7583 C 4235,7524 4188,7477 4129,7477 L 3352,7477 C 3293,7477 3246,7524 3246,7583 L 3246,8360 C 3246,8419 3293,8466 3352,8466 L 3741,8466 Z"/>
       </g>
      </g>
      <g class="com.sun.star.drawing.RectangleShape">
       <g id="id79">
        <path fill="rgb(0,0,0)" stroke="none" d="M 3741,7445 L 4182,7445 C 4231,7445 4270,7406 4270,7357 L 4270,6474 C 4270,6425 4231,6386 4182,6386 L 3299,6386 C 3250,6386 3211,6425 3211,6474 L 3211,7357 C 3211,7406 3250,7445 3299,7445 L 3741,7445 Z"/>
        <path fill="none" stroke="rgb(0,0,0)" stroke-width="71" stroke-linejoin="round" d="M 3741,7445 L 4182,7445 C 4231,7445 4270,7406 4270,7357 L 4270,6474 C 4270,6425 4231,6386 4182,6386 L 3299,6386 C 3250,6386 3211,6425 3211,6474 L 3211,7357 C 3211,7406 3250,7445 3299,7445 L 3741,7445 Z"/>
       </g>
      </g>
      <g class="com.sun.star.drawing.RectangleShape">
       <g id="id80">
        <path fill="rgb(255,213,0)" stroke="none" d="M 3741,7410 L 4129,7410 C 4188,7410 4235,7363 4235,7304 L 4235,6527 C 4235,6468 4188,6421 4129,6421 L 3352,6421 C 3293,6421 3246,6468 3246,6527 L 3246,7304 C 3246,7363 3293,7410 3352,7410 L 3741,7410 Z"/>
        <path fill="none" stroke="rgb(0,0,0)" stroke-width="71" stroke-linejoin="round" d="M 3741,7410 L 4129,7410 C 4188,7410 4235,7363 4235,7304 L 4235,6527 C 4235,6468 4188,6421 4129,6421 L 3352,6421 C 3293,6421 3246,6468 3246,6527 L 3246,7304 C 3246,7363 3293,7410 3352,7410 L 3741,7410 Z"/>
       </g>
      </g>
      <g class="com.sun.star.drawing.RectangleShape">
       <g id="id81">
        <path fill="rgb(0,0,0)" stroke="none" d="M 4800,9561 L 5241,9561 C 5290,9561 5329,9522 5329,9473 L 5329,8590 C 5329,8541 5290,8502 5241,8502 L 4358,8502 C 4309,8502 4270,8541 4270,8590 L 4270,9473 C 4270,9522 4309,9561 4358,9561 L 4800,9561 Z"/>
        <path fill="none" stroke="rgb(0,0,0)" stroke-width="71" stroke-linejoin="round" d="M 4800,9561 L 5241,9561 C 5290,9561 5329,9522 5329,9473 L 5329,8590 C 5329,8541 5290,8502 5241,8502 L 4358,8502 C 4309,8502 4270,8541 4270,8590 L 4270,9473 C 4270,9522 4309,9561 4358,9561 L 4800,9561 Z"/>
       </g>
      </g>
      <g class="com.sun.star.drawing.RectangleShape">
       <g id="id82">
        <path fill="rgb(255,213,0)" stroke="none" d="M 4800,9526 L 5188,9526 C 5247,9526 5294,9479 5294,9420 L 5294,8643 C 5294,8584 5247,8537 5188,8537 L 4411,8537 C 4352,8537 4305,8584 4305,8643 L 4305,9420 C 4305,9479 4352,9526 4411,9526 L 4800,9526 Z"/>
        <path fill="none" stroke="rgb(0,0,0)" stroke-width="71" stroke-linejoin="round" d="M 4800,9526 L 5188,9526 C 5247,9526 5294,9479 5294,9420 L 5294,8643 C 5294,8584 5247,8537 5188,8537 L 4411,8537 C 4352,8537 4305,8584 4305,8643 L 4305,9420 C 4305,9479 4352,9526 4411,9526 L 4800,9526 Z"/>
       </g>
      </g>
      <g class="com.sun.star.drawing.RectangleShape">
       <g id="id83">
        <path fill="rgb(0,0,0)" stroke="none" d="M 4800,8503 L 5241,8503 C 5290,8503 5329,8464 5329,8415 L 5329,7532 C 5329,7483 5290,7444 5241,7444 L 4358,7444 C 4309,7444 4270,7483 4270,7532 L 4270,8415 C 4270,8464 4309,8503 4358,8503 L 4800,8503 Z"/>
        <path fill="none" stroke="rgb(0,0,0)" stroke-width="71" stroke-linejoin="round" d="M 4800,8503 L 5241,8503 C 5290,8503 5329,8464 5329,8415 L 5329,7532 C 5329,7483 5290,7444 5241,7444 L 4358,7444 C 4309,7444 4270,7483 4270,7532 L 4270,8415 C 4270,8464 4309,8503 4358,8503 L 4800,8503 Z"/>
       </g>
      </g>
      <g class="com.sun.star.drawing.RectangleShape">
       <g id="id84">
        <path fill="rgb(255,213,0)" stroke="none" d="M 4800,8466 L 5188,8466 C 5247,8466 5294,8419 5294,8360 L 5294,7583 C 5294,7524 5247,7477 5188,7477 L 4411,7477 C 4352,7477 4305,7524 4305,7583 L 4305,8360 C 4305,8419 4352,8466 4411,8466 L 4800,8466 Z"/>
        <path fill="none" stroke="rgb(0,0,0)" stroke-width="71" stroke-linejoin="round" d="M 4800,8466 L 5188,8466 C 5247,8466 5294,8419 5294,8360 L 5294,7583 C 5294,7524 5247,7477 5188,7477 L 4411,7477 C 4352,7477 4305,7524 4305,7583 L 4305,8360 C 4305,8419 4352,8466 4411,8466 L 4800,8466 Z"/>
       </g>
      </g>
      <g class="com.sun.star.drawing.RectangleShape">
       <g id="id85">
        <path fill="rgb(0,0,0)" stroke="none" d="M 4800,7445 L 5241,7445 C 5290,7445 5329,7406 5329,7357 L 5329,6474 C 5329,6425 5290,6386 5241,6386 L 4358,6386 C 4309,6386 4270,6425 4270,6474 L 4270,7357 C 4270,7406 4309,7445 4358,7445 L 4800,7445 Z"/>
        <path fill="none" stroke="rgb(0,0,0)" stroke-width="71" stroke-linejoin="round" d="M 4800,7445 L 5241,7445 C 5290,7445 5329,7406 5329,7357 L 5329,6474 C 5329,6425 5290,6386 5241,6386 L 4358,6386 C 4309,6386 4270,6425 4270,6474 L 4270,7357 C 4270,7406 4309,7445 4358,7445 L 4800,7445 Z"/>
       </g>
      </g>
      <g class="com.sun.star.drawing.RectangleShape">
       <g id="id86">
        <path fill="rgb(255,213,0)" stroke="none" d="M 4800,7410 L 5188,7410 C 5247,7410 5294,7363 5294,7304 L 5294,6527 C 5294,6468 5247,6421 5188,6421 L 4411,6421 C 4352,6421 4305,6468 4305,6527 L 4305,7304 C 4305,7363 4352,7410 4411,7410 L 4800,7410 Z"/>
        <path fill="none" stroke="rgb(0,0,0)" stroke-width="71" stroke-linejoin="round" d="M 4800,7410 L 5188,7410 C 5247,7410 5294,7363 5294,7304 L 5294,6527 C 5294,6468 5247,6421 5188,6421 L 4411,6421 C 4352,6421 4305,6468 4305,6527 L 4305,7304 C 4305,7363 4352,7410 4411,7410 L 4800,7410 Z"/>
       </g>
      </g>
      <g class="com.sun.star.drawing.RectangleShape">
       <g id="id87">
        <path fill="rgb(0,0,0)" stroke="none" d="M 5858,9561 L 6299,9561 C 6348,9561 6387,9522 6387,9473 L 6387,8590 C 6387,8541 6348,8502 6299,8502 L 5416,8502 C 5367,8502 5328,8541 5328,8590 L 5328,9473 C 5328,9522 5367,9561 5416,9561 L 5858,9561 Z"/>
        <path fill="none" stroke="rgb(0,0,0)" stroke-width="71" stroke-linejoin="round" d="M 5858,9561 L 6299,9561 C 6348,9561 6387,9522 6387,9473 L 6387,8590 C 6387,8541 6348,8502 6299,8502 L 5416,8502 C 5367,8502 5328,8541 5328,8590 L 5328,9473 C 5328,9522 5367,9561 5416,9561 L 5858,9561 Z"/>
       </g>
      </g>
      <g class="com.sun.star.drawing.RectangleShape">
       <g id="id88">
        <path fill="rgb(255,213,0)" stroke="none" d="M 5856,9526 L 6244,9526 C 6303,9526 6350,9479 6350,9420 L 6350,8643 C 6350,8584 6303,8537 6244,8537 L 5467,8537 C 5408,8537 5361,8584 5361,8643 L 5361,9420 C 5361,9479 5408,9526 5467,9526 L 5856,9526 Z"/>
        <path fill="none" stroke="rgb(0,0,0)" stroke-width="71" stroke-linejoin="round" d="M 5856,9526 L 6244,9526 C 6303,9526 6350,9479 6350,9420 L 6350,8643 C 6350,8584 6303,8537 6244,8537 L 5467,8537 C 5408,8537 5361,8584 5361,8643 L 5361,9420 C 5361,9479 5408,9526 5467,9526 L 5856,9526 Z"/>
       </g>
      </g>
      <g class="com.sun.star.drawing.RectangleShape">
       <g id="id89">
        <path fill="rgb(0,0,0)" stroke="none" d="M 5858,8503 L 6299,8503 C 6348,8503 6387,8464 6387,8415 L 6387,7532 C 6387,7483 6348,7444 6299,7444 L 5416,7444 C 5367,7444 5328,7483 5328,7532 L 5328,8415 C 5328,8464 5367,8503 5416,8503 L 5858,8503 Z"/>
        <path fill="none" stroke="rgb(0,0,0)" stroke-width="71" stroke-linejoin="round" d="M 5858,8503 L 6299,8503 C 6348,8503 6387,8464 6387,8415 L 6387,7532 C 6387,7483 6348,7444 6299,7444 L 5416,7444 C 5367,7444 5328,7483 5328,7532 L 5328,8415 C 5328,8464 5367,8503 5416,8503 L 5858,8503 Z"/>
       </g>
      </g>
      <g class="com.sun.star.drawing.RectangleShape">
       <g id="id90">
        <path fill="rgb(255,213,0)" stroke="none" d="M 5856,8466 L 6244,8466 C 6303,8466 6350,8419 6350,8360 L 6350,7583 C 6350,7524 6303,7477 6244,7477 L 5467,7477 C 5408,7477 5361,7524 5361,7583 L 5361,8360 C 5361,8419 5408,8466 5467,8466 L 5856,8466 Z"/>
        <path fill="none" stroke="rgb(0,0,0)" stroke-width="71" stroke-linejoin="round" d="M 5856,8466 L 6244,8466 C 6303,8466 6350,8419 6350,8360 L 6350,7583 C 6350,7524 6303,7477 6244,7477 L 5467,7477 C 5408,7477 5361,7524 5361,7583 L 5361,8360 C 5361,8419 5408,8466 5467,8466 L 5856,8466 Z"/>
       </g>
      </g>
      <g class="com.sun.star.drawing.RectangleShape">
       <g id="id91">
        <path fill="rgb(0,0,0)" stroke="none" d="M 5858,7445 L 6299,7445 C 6348,7445 6387,7406 6387,7357 L 6387,6474 C 6387,6425 6348,6386 6299,6386 L 5416,6386 C 5367,6386 5328,6425 5328,6474 L 5328,7357 C 5328,7406 5367,7445 5416,7445 L 5858,7445 Z"/>
        <path fill="none" stroke="rgb(0,0,0)" stroke-width="71" stroke-linejoin="round" d="M 5858,7445 L 6299,7445 C 6348,7445 6387,7406 6387,7357 L 6387,6474 C 6387,6425 6348,6386 6299,6386 L 5416,6386 C 5367,6386 5328,6425 5328,6474 L 5328,7357 C 5328,7406 5367,7445 5416,7445 L 5858,7445 Z"/>
       </g>
      </g>
      <g class="com.sun.star.drawing.RectangleShape">
       <g id="id92">
        <path fill="rgb(255,213,0)" stroke="none" d="M 5856,7410 L 6244,7410 C 6303,7410 6350,7363 6350,7304 L 6350,6527 C 6350,6468 6303,6421 6244,6421 L 5467,6421 C 5408,6421 5361,6468 5361,6527 L 5361,7304 C 5361,7363 5408,7410 5467,7410 L 5856,7410 Z"/>
        <path fill="none" stroke="rgb(0,0,0)" stroke-width="71" stroke-linejoin="round" d="M 5856,7410 L 6244,7410 C 6303,7410 6350,7363 6350,7304 L 6350,6527 C 6350,6468 6303,6421 6244,6421 L 5467,6421 C 5408,6421 5361,6468 5361,6527 L 5361,7304 C 5361,7363 5408,7410 5467,7410 L 5856,7410 Z"/>
       </g>
      </g>
      <g class="com.sun.star.drawing.RectangleShape">
       <g id="id93">
        <path fill="rgb(0,0,0)" stroke="none" d="M 3741,3211 L 4182,3211 C 4231,3211 4270,3172 4270,3123 L 4270,2240 C 4270,2191 4231,2152 4182,2152 L 3299,2152 C 3250,2152 3211,2191 3211,2240 L 3211,3123 C 3211,3172 3250,3211 3299,3211 L 3741,3211 Z"/>
        <path fill="none" stroke="rgb(0,0,0)" stroke-width="71" stroke-linejoin="round" d="M 3741,3211 L 4182,3211 C 4231,3211 4270,3172 4270,3123 L 4270,2240 C 4270,2191 4231,2152 4182,2152 L 3299,2152 C 3250,2152 3211,2191 3211,2240 L 3211,3123 C 3211,3172 3250,3211 3299,3211 L 3741,3211 Z"/>
       </g>
      </g>
      <g class="com.sun.star.drawing.RectangleShape">
       <g id="id94">
        <path fill="rgb(255,255,255)" stroke="none" d="M 3741,3176 L 4129,3176 C 4188,3176 4235,3129 4235,3070 L 4235,2293 C 4235,2234 4188,2187 4129,2187 L 3352,2187 C 3293,2187 3246,2234 3246,2293 L 3246,3070 C 3246,3129 3293,3176 3352,3176 L 3741,3176 Z"/>
        <path fill="none" stroke="rgb(0,0,0)" stroke-width="71" stroke-linejoin="round" d="M 3741,3176 L 4129,3176 C 4188,3176 4235,3129 4235,3070 L 4235,2293 C 4235,2234 4188,2187 4129,2187 L 3352,2187 C 3293,2187 3246,2234 3246,2293 L 3246,3070 C 3246,3129 3293,3176 3352,3176 L 3741,3176 Z"/>
       </g>
      </g>
      <g class="com.sun.star.drawing.RectangleShape">
       <g id="id95">
        <path fill="rgb(0,0,0)" stroke="none" d="M 3741,2153 L 4182,2153 C 4231,2153 4270,2114 4270,2065 L 4270,1182 C 4270,1133 4231,1094 4182,1094 L 3299,1094 C 3250,1094 3211,1133 3211,1182 L 3211,2065 C 3211,2114 3250,2153 3299,2153 L 3741,2153 Z"/>
        <path fill="none" stroke="rgb(0,0,0)" stroke-width="71" stroke-linejoin="round" d="M 3741,2153 L 4182,2153 C 4231,2153 4270,2114 4270,2065 L 4270,1182 C 4270,1133 4231,1094 4182,1094 L 3299,1094 C 3250,1094 3211,1133 3211,1182 L 3211,2065 C 3211,2114 3250,2153 3299,2153 L 3741,2153 Z"/>
       </g>
      </g>
      <g class="com.sun.star.drawing.RectangleShape">
       <g id="id96">
        <path fill="rgb(255,255,255)" stroke="none" d="M 3741,2116 L 4129,2116 C 4188,2116 4235,2069 4235,2010 L 4235,1233 C 4235,1174 4188,1127 4129,1127 L 3352,1127 C 3293,1127 3246,1174 3246,1233 L 3246,2010 C 3246,2069 3293,2116 3352,2116 L 3741,2116 Z"/>
        <path fill="none" stroke="rgb(0,0,0)" stroke-width="71" stroke-linejoin="round" d="M 3741,2116 L 4129,2116 C 4188,2116 4235,2069 4235,2010 L 4235,1233 C 4235,1174 4188,1127 4129,1127 L 3352,1127 C 3293,1127 3246,1174 3246,1233 L 3246,2010 C 3246,2069 3293,2116 3352,2116 L 3741,2116 Z"/>
       </g>
      </g>
      <g class="com.sun.star.drawing.RectangleShape">
       <g id="id97">
        <path fill="rgb(0,0,0)" stroke="none" d="M 3741,1095 L 4182,1095 C 4231,1095 4270,1056 4270,1007 L 4270,124 C 4270,75 4231,36 4182,36 L 3299,36 C 3250,36 3211,75 3211,124 L 3211,1007 C 3211,1056 3250,1095 3299,1095 L 3741,1095 Z"/>
        <path fill="none" stroke="rgb(0,0,0)" stroke-width="71" stroke-linejoin="round" d="M 3741,1095 L 4182,1095 C 4231,1095 4270,1056 4270,1007 L 4270,124 C 4270,75 4231,36 4182,36 L 3299,36 C 3250,36 3211,75 3211,124 L 3211,1007 C 3211,1056 3250,1095 3299,1095 L 3741,1095 Z"/>
       </g>
      </g>
      <g class="com.sun.star.drawing.RectangleShape">
       <g id="id98">
        <path fill="rgb(255,255,255)" stroke="none" d="M 3741,1060 L 4129,1060 C 4188,1060 4235,1013 4235,954 L 4235,177 C 4235,118 4188,71 4129,71 L 3352,71 C 3293,71 3246,118 3246,177 L 3246,954 C 3246,1013 3293,1060 3352,1060 L 3741,1060 Z"/>
        <path fill="none" stroke="rgb(0,0,0)" stroke-width="71" stroke-linejoin="round" d="M 3741,1060 L 4129,1060 C 4188,1060 4235,1013 4235,954 L 4235,177 C 4235,118 4188,71 4129,71 L 3352,71 C 3293,71 3246,118 3246,177 L 3246,954 C 3246,1013 3293,1060 3352,1060 L 3741,1060 Z"/>
       </g>
      </g>
      <g class="com.sun.star.drawing.RectangleShape">
       <g id="id99">
        <path fill="rgb(0,0,0)" stroke="none" d="M 4800,3211 L 5241,3211 C 5290,3211 5329,3172 5329,3123 L 5329,2240 C 5329,2191 5290,2152 5241,2152 L 4358,2152 C 4309,2152 4270,2191 4270,2240 L 4270,3123 C 4270,3172 4309,3211 4358,3211 L 4800,3211 Z"/>
        <path fill="none" stroke="rgb(0,0,0)" stroke-width="71" stroke-linejoin="round" d="M 4800,3211 L 5241,3211 C 5290,3211 5329,3172 5329,3123 L 5329,2240 C 5329,2191 5290,2152 5241,2152 L 4358,2152 C 4309,2152 4270,2191 4270,2240 L 4270,3123 C 4270,3172 4309,3211 4358,3211 L 4800,3211 Z"/>
       </g>
      </g>
      <g class="com.sun.star.drawing.RectangleShape">
       <g id="id100">
        <path fill="rgb(255,255,255)" stroke="none" d="M 4800,3176 L 5188,3176 C 5247,3176 5294,3129 5294,3070 L 5294,2293 C 5294,2234 5247,2187 5188,2187 L 4411,2187 C 4352,2187 4305,2234 4305,2293 L 4305,3070 C 4305,3129 4352,3176 4411,3176 L 4800,3176 Z"/>
        <path fill="none" stroke="rgb(0,0,0)" stroke-width="71" stroke-linejoin="round" d="M 4800,3176 L 5188,3176 C 5247,3176 5294,3129 5294,3070 L 5294,2293 C 5294,2234 5247,2187 5188,2187 L 4411,2187 C 4352,2187 4305,2234 4305,2293 L 4305,3070 C 4305,3129 4352,3176 4411,3176 L 4800,3176 Z"/>
       </g>
      </g>
      <g class="com.sun.star.drawing.RectangleShape">
       <g id="id101">
        <path fill="rgb(0,0,0)" stroke="none" d="M 4800,2153 L 5241,2153 C 5290,2153 5329,2114 5329,2065 L 5329,1182 C 5329,1133 5290,1094 5241,1094 L 4358,1094 C 4309,1094 4270,1133 4270,1182 L 4270,2065 C 4270,2114 4309,2153 4358,2153 L 4800,2153 Z"/>
        <path fill="none" stroke="rgb(0,0,0)" stroke-width="71" stroke-linejoin="round" d="M 4800,2153 L 5241,2153 C 5290,2153 5329,2114 5329,2065 L 5329,1182 C 5329,1133 5290,1094 5241,1094 L 4358,1094 C 4309,1094 4270,1133 4270,1182 L 4270,2065 C 4270,2114 4309,2153 4358,2153 L 4800,2153 Z"/>
       </g>
      </g>
      <g class="com.sun.star.drawing.RectangleShape">
       <g id="id102">
        <path fill="rgb(255,255,255)" stroke="none" d="M 4800,2116 L 5188,2116 C 5247,2116 5294,2069 5294,2010 L 5294,1233 C 5294,1174 5247,1127 5188,1127 L 4411,1127 C 4352,1127 4305,1174 4305,1233 L 4305,2010 C 4305,2069 4352,2116 4411,2116 L 4800,2116 Z"/>
        <path fill="none" stroke="rgb(0,0,0)" stroke-width="71" stroke-linejoin="round" d="M 4800,2116 L 5188,2116 C 5247,2116 5294,2069 5294,2010 L 5294,1233 C 5294,1174 5247,1127 5188,1127 L 4411,1127 C 4352,1127 4305,1174 4305,1233 L 4305,2010 C 4305,2069 4352,2116 4411,2116 L 4800,2116 Z"/>
       </g>
      </g>
      <g class="com.sun.star.drawing.RectangleShape">
       <g id="id103">
        <path fill="rgb(0,0,0)" stroke="none" d="M 4800,1095 L 5241,1095 C 5290,1095 5329,1056 5329,1007 L 5329,124 C 5329,75 5290,36 5241,36 L 4358,36 C 4309,36 4270,75 4270,124 L 4270,1007 C 4270,1056 4309,1095 4358,1095 L 4800,1095 Z"/>
        <path fill="none" stroke="rgb(0,0,0)" stroke-width="71" stroke-linejoin="round" d="M 4800,1095 L 5241,1095 C 5290,1095 5329,1056 5329,1007 L 5329,124 C 5329,75 5290,36 5241,36 L 4358,36 C 4309,36 4270,75 4270,124 L 4270,1007 C 4270,1056 4309,1095 4358,1095 L 4800,1095 Z"/>
       </g>
      </g>
      <g class="com.sun.star.drawing.RectangleShape">
       <g id="id104">
        <path fill="rgb(255,255,255)" stroke="none" d="M 4800,1060 L 5188,1060 C 5247,1060 5294,1013 5294,954 L 5294,177 C 5294,118 5247,71 5188,71 L 4411,71 C 4352,71 4305,118 4305,177 L 4305,954 C 4305,1013 4352,1060 4411,1060 L 4800,1060 Z"/>
        <path fill="none" stroke="rgb(0,0,0)" stroke-width="71" stroke-linejoin="round" d="M 4800,1060 L 5188,1060 C 5247,1060 5294,1013 5294,954 L 5294,177 C 5294,118 5247,71 5188,71 L 4411,71 C 4352,71 4305,118 4305,177 L 4305,954 C 4305,1013 4352,1060 4411,1060 L 4800,1060 Z"/>
       </g>
      </g>
      <g class="com.sun.star.drawing.RectangleShape">
       <g id="id105">
        <path fill="rgb(0,0,0)" stroke="none" d="M 5858,3211 L 6299,3211 C 6348,3211 6387,3172 6387,3123 L 6387,2240 C 6387,2191 6348,2152 6299,2152 L 5416,2152 C 5367,2152 5328,2191 5328,2240 L 5328,3123 C 5328,3172 5367,3211 5416,3211 L 5858,3211 Z"/>
        <path fill="none" stroke="rgb(0,0,0)" stroke-width="71" stroke-linejoin="round" d="M 5858,3211 L 6299,3211 C 6348,3211 6387,3172 6387,3123 L 6387,2240 C 6387,2191 6348,2152 6299,2152 L 5416,2152 C 5367,2152 5328,2191 5328,2240 L 5328,3123 C 5328,3172 5367,3211 5416,3211 L 5858,3211 Z"/>
       </g>
      </g>
      <g class="com.sun.star.drawing.RectangleShape">
       <g id="id106">
        <path fill="rgb(255,255,255)" stroke="none" d="M 5856,3176 L 6244,3176 C 6303,3176 6350,3129 6350,3070 L 6350,2293 C 6350,2234 6303,2187 6244,2187 L 5467,2187 C 5408,2187 5361,2234 5361,2293 L 5361,3070 C 5361,3129 5408,3176 5467,3176 L 5856,3176 Z"/>
        <path fill="none" stroke="rgb(0,0,0)" stroke-width="71" stroke-linejoin="round" d="M 5856,3176 L 6244,3176 C 6303,3176 6350,3129 6350,3070 L 6350,2293 C 6350,2234 6303,2187 6244,2187 L 5467,2187 C 5408,2187 5361,2234 5361,2293 L 5361,3070 C 5361,3129 5408,3176 5467,3176 L 5856,3176 Z"/>
       </g>
      </g>
      <g class="com.sun.star.drawing.RectangleShape">
       <g id="id107">
        <path fill="rgb(0,0,0)" stroke="none" d="M 5858,2153 L 6299,2153 C 6348,2153 6387,2114 6387,2065 L 6387,1182 C 6387,1133 6348,1094 6299,1094 L 5416,1094 C 5367,1094 5328,1133 5328,1182 L 5328,2065 C 5328,2114 5367,2153 5416,2153 L 5858,2153 Z"/>
        <path fill="none" stroke="rgb(0,0,0)" stroke-width="71" stroke-linejoin="round" d="M 5858,2153 L 6299,2153 C 6348,2153 6387,2114 6387,2065 L 6387,1182 C 6387,1133 6348,1094 6299,1094 L 5416,1094 C 5367,1094 5328,1133 5328,1182 L 5328,2065 C 5328,2114 5367,2153 5416,2153 L 5858,2153 Z"/>
       </g>
      </g>
      <g class="com.sun.star.drawing.RectangleShape">
       <g id="id108">
        <path fill="rgb(255,255,255)" stroke="none" d="M 5856,2116 L 6244,2116 C 6303,2116 6350,2069 6350,2010 L 6350,1233 C 6350,1174 6303,1127 6244,1127 L 5467,1127 C 5408,1127 5361,1174 5361,1233 L 5361,2010 C 5361,2069 5408,2116 5467,2116 L 5856,2116 Z"/>
        <path fill="none" stroke="rgb(0,0,0)" stroke-width="71" stroke-linejoin="round" d="M 5856,2116 L 6244,2116 C 6303,2116 6350,2069 6350,2010 L 6350,1233 C 6350,1174 6303,1127 6244,1127 L 5467,1127 C 5408,1127 5361,1174 5361,1233 L 5361,2010 C 5361,2069 5408,2116 5467,2116 L 5856,2116 Z"/>
       </g>
      </g>
      <g class="com.sun.star.drawing.RectangleShape">
       <g id="id109">
        <path fill="rgb(0,0,0)" stroke="none" d="M 5858,1095 L 6299,1095 C 6348,1095 6387,1056 6387,1007 L 6387,124 C 6387,75 6348,36 6299,36 L 5416,36 C 5367,36 5328,75 5328,124 L 5328,1007 C 5328,1056 5367,1095 5416,1095 L 5858,1095 Z"/>
        <path fill="none" stroke="rgb(0,0,0)" stroke-width="71" stroke-linejoin="round" d="M 5858,1095 L 6299,1095 C 6348,1095 6387,1056 6387,1007 L 6387,124 C 6387,75 6348,36 6299,36 L 5416,36 C 5367,36 5328,75 5328,124 L 5328,1007 C 5328,1056 5367,1095 5416,1095 L 5858,1095 Z"/>
       </g>
      </g>
      <g class="com.sun.star.drawing.RectangleShape">
       <g id="id110">
        <path fill="rgb(255,255,255)" stroke="none" d="M 5856,1060 L 6244,1060 C 6303,1060 6350,1013 6350,954 L 6350,177 C 6350,118 6303,71 6244,71 L 5467,71 C 5408,71 5361,118 5361,177 L 5361,954 C 5361,1013 5408,1060 5467,1060 L 5856,1060 Z"/>
        <path fill="none" stroke="rgb(0,0,0)" stroke-width="71" stroke-linejoin="round" d="M 5856,1060 L 6244,1060 C 6303,1060 6350,1013 6350,954 L 6350,177 C 6350,118 6303,71 6244,71 L 5467,71 C 5408,71 5361,118 5361,177 L 5361,954 C 5361,1013 5408,1060 5467,1060 L 5856,1060 Z"/>
       </g>
      </g>
     </g>
    </g>
   </g>
  </g>
 </g>
</svg>